{"asset":{"generator":"3D Builder","version":"2.0"},"scene":0,"scenes":[{"nodes":[0]}],"nodes":[{"mesh":0,"matrix":[0.99999994039535522,0,0,0,0,-1.1920928244535389E-7,-0.99999982118606567,0,0,0.99999982118606567,-1.1920928244535389E-7,0,0,0,0,1]}],"meshes":[{"primitives":[{"attributes":{"POSITION":0},"mode":4,"indices":7,"material":0},{"attributes":{"POSITION":1},"mode":4,"indices":8,"material":1},{"attributes":{"POSITION":2},"mode":4,"indices":9,"material":2},{"attributes":{"POSITION":3},"mode":4,"indices":10,"material":3},{"attributes":{"POSITION":4},"mode":4,"indices":11,"material":4},{"attributes":{"POSITION":5},"mode":4,"indices":12,"material":5},{"attributes":{"POSITION":6},"mode":4,"indices":13,"material":6}]}],"materials":[{"name":"Plￃﾡstico_-_Com_brilho_(Preto)","pbrMetallicRoughness":{"baseColorFactor":[0.0097211841493844986,0.0097211841493844986,0.0097211841493844986,1],"metallicFactor":0,"roughnessFactor":1},"alphaMode":"OPAQUE"},{"name":"Plￃﾡstico_-_Com_brilho_(Vermelho)","pbrMetallicRoughness":{"baseColorFactor":[0.552010715007782,0.03560127317905426,0.020288519561290741,1],"metallicFactor":0,"roughnessFactor":1},"alphaMode":"OPAQUE"},{"name":"Plￃﾡstico_-_Fosco_(Azul)","pbrMetallicRoughness":{"baseColorFactor":[0.029556745663285255,0.043735191226005554,0.30498701333999634,1],"metallicFactor":0,"roughnessFactor":1},"alphaMode":"OPAQUE"},{"name":"Plￃﾡstico_-_Com_brilho_(Amarelo)","pbrMetallicRoughness":{"baseColorFactor":[0.80695247650146484,0.41788452863693237,0.016807394102215767,1],"metallicFactor":0,"roughnessFactor":1},"alphaMode":"OPAQUE"},{"name":"Revestimento_(Amarelo)","pbrMetallicRoughness":{"baseColorFactor":[0.89626914262771606,0.13843151926994324,0.006048805546015501,1],"metallicFactor":0,"roughnessFactor":1},"alphaMode":"OPAQUE"},{"name":"Plￃﾡstico_-_Fosco_(Verde)","pbrMetallicRoughness":{"baseColorFactor":[0.057805582880973816,0.30498701333999634,0.064803309738636017,1],"metallicFactor":0,"roughnessFactor":1},"alphaMode":"OPAQUE"},{"name":"Plￃﾡstico_-_Fosco_(Branco)","pbrMetallicRoughness":{"baseColorFactor":[0.92158228158950806,0.92158228158950806,0.89626914262771606,1],"metallicFactor":0,"roughnessFactor":1},"alphaMode":"OPAQUE"}],"accessors":[{"bufferView":0,"byteOffset":0,"count":35279,"componentType":5126,"type":"VEC3","min":[-0.010500000789761543,-0.010500000789761543,0],"max":[0.010500000789761543,0.010500000789761543,0.021000001579523087]},{"bufferView":0,"byteOffset":423348,"count":36,"componentType":5126,"type":"VEC3","min":[-0.010400000028312206,0.010500000789761543,0.00010000000474974513],"max":[0.010400000028312206,0.010500000789761543,0.020899999886751175]},{"bufferView":0,"byteOffset":423780,"count":36,"componentType":5126,"type":"VEC3","min":[-0.010400000028312206,-0.010400000028312206,0.021000001579523087],"max":[0.010400000028312206,0.010400000028312206,0.021000001579523087]},{"bufferView":0,"byteOffset":424212,"count":36,"componentType":5126,"type":"VEC3","min":[0.010500000789761543,-0.010400000028312206,0.00010000000474974513],"max":[0.010500000789761543,0.010400000028312206,0.020899999886751175]},{"bufferView":0,"byteOffset":424644,"count":2560,"componentType":5126,"type":"VEC3","min":[-0.010400000028312206,-0.010500000789761543,0.00010000000474974513],"max":[0.010400000028312206,-0.010500000789761543,0.020899999886751175]},{"bufferView":0,"byteOffset":455364,"count":36,"componentType":5126,"type":"VEC3","min":[-0.010400000028312206,-0.010400000028312206,0],"max":[0.010400000028312206,0.010400000028312206,0]},{"bufferView":0,"byteOffset":455796,"count":1740,"componentType":5126,"type":"VEC3","min":[-0.010500000789761543,-0.010400000028312206,0.00010000000474974513],"max":[-0.010500000789761543,0.010400000028312206,0.020899999886751175]},{"bufferView":1,"byteOffset":0,"count":199938,"componentType":5125,"type":"SCALAR"},{"bufferView":1,"byteOffset":799752,"count":54,"componentType":5125,"type":"SCALAR"},{"bufferView":1,"byteOffset":799968,"count":54,"componentType":5125,"type":"SCALAR"},{"bufferView":1,"byteOffset":800184,"count":54,"componentType":5125,"type":"SCALAR"},{"bufferView":1,"byteOffset":800400,"count":7656,"componentType":5125,"type":"SCALAR"},{"bufferView":1,"byteOffset":831024,"count":54,"componentType":5125,"type":"SCALAR"},{"bufferView":1,"byteOffset":831240,"count":5172,"componentType":5125,"type":"SCALAR"}],"bufferViews":[{"buffer":0,"byteOffset":0,"byteLength":476676,"byteStride":12,"target":34962},{"buffer":0,"byteOffset":476676,"byteLength":851928,"target":34963}],"buffers":[{"byteLength":1328604,"uri":"Cubo_Imersao_AR.bin"}]}